HIERARCHY
ROOT Hips
{
	OFFSET 0.000000 0.000000 0.000000 
	CHANNELS 6 Xposition Yposition Zposition Yrotation Zrotation Xrotation 
	JOINT Lumbar
	{
		OFFSET 0.000000 0.000000 0.000000 
		CHANNELS 3 Zrotation Xrotation Yrotation
		JOINT Neck
		{
			OFFSET 0.000000 0.445665 0.000000 
			CHANNELS 3 Zrotation Xrotation Yrotation
			End Site
			{
				OFFSET 0.000000 0.227535 0.000000 
			}
		}
		JOINT RightShoulder
		{
			OFFSET 0.019635 0.377685 0.194865 
			CHANNELS 3 Zrotation Xrotation Yrotation
			JOINT RightElbow
			{
				OFFSET 0.000000 -0.243375 0.000000 
				CHANNELS 2 Zrotation Yrotation
				JOINT RightWrist
				{
					OFFSET 0.000000 -0.264825 0.000000 
					CHANNELS 2 Zrotation Xrotation
					End Site
					{
						OFFSET 0.006600 -0.176220 0.000990 
					}
				}
			}
		}
		JOINT LeftShoulder
		{
			OFFSET 0.019635 0.377685 -0.194865 
			CHANNELS 3 Zrotation Xrotation Yrotation
			JOINT LeftElbow
			{
				OFFSET 0.000000 -0.243375 0.000000 
				CHANNELS 2 Zrotation Yrotation
				JOINT LeftWrist
				{
					OFFSET 0.000000 -0.264825 0.000000 
					CHANNELS 2 Zrotation Xrotation
					End Site
					{
						OFFSET 0.006600 -0.176220 -0.000990 
					}
				}
			}
		}
	}
	JOINT RightHip
	{
		OFFSET 0.052140 -0.069960 0.075570 
		CHANNELS 3 Zrotation Xrotation Yrotation
		JOINT RightKnee
		{
			OFFSET 0.000000 -0.402270 0.000000 
			CHANNELS 1 Zrotation
			JOINT RightAnkle
			{
				OFFSET 0.000000 -0.404085 0.000000 
				CHANNELS 3 Zrotation Xrotation Yrotation
				End Site
				{
					OFFSET 0.204105 -0.089430 0.008415 
				}
			}
		}
	}
	JOINT LeftHip
	{
		OFFSET 0.052140 -0.069960 -0.075570 
		CHANNELS 3 Zrotation Xrotation Yrotation
		JOINT LeftKnee
		{
			OFFSET 0.000000 -0.402270 0.000000 
			CHANNELS 1 Zrotation
			JOINT LeftAnkle
			{
				OFFSET 0.000000 -0.404085 0.000000 
				CHANNELS 3 Zrotation Xrotation Yrotation
				End Site
				{
					OFFSET 0.204105 -0.089430 -0.008415 
				}
			}
		}
	}
}
MOTION
Frames: 33
Frame Time: 0.02
-0.17881 -0.0297 -0.17711 27.31146 -16.26437 5.07366 43.34013 3.21544 6.66979 -10.25208 -17.47707 -0.83048 -63.64709 -66.39158 34.31165 116.92057 108.73398 -33.45562 -6.92595 -9.26204 118.75752 -3.30671 24.20541 -43.94411 8.99066 12.23328 37.14046 -25.27686 8.1763 -30.76569 -9.64096 -5.24006 -3.59563 35.01349 -8.26608 21.55814 -28.09659 7.76458 -5.63954 -2.19221
-0.17948 -0.02977 -0.17628 27.26027 -16.2218 5.08688 43.17815 3.19005 6.66018 -10.32946 -17.52348 -0.83049 -63.65685 -66.39307 34.39422 116.9298 108.67591 -33.60432 -6.86205 -9.09943 118.52503 -3.49248 24.26684 -46.19403 8.491 12.53272 37.20101 -25.24393 8.24334 -30.79836 -9.63502 -5.23168 -3.59331 35.04116 -8.24754 21.50178 -28.10932 5.33349 -4.49826 -1.61106
-0.18018 -0.02979 -0.17539 27.20522 -16.20098 5.09055 43.01579 3.17119 6.65808 -10.40281 -17.56752 -0.8305 -63.66214 -66.3878 34.48577 116.94236 108.60592 -33.75692 -6.79683 -8.93 118.28313 -3.70164 24.35492 -48.96052 7.88947 12.92675 37.27875 -25.16962 8.41564 -30.82012 -9.64569 -5.22888 -3.59608 35.09858 -8.22823 21.39137 -28.11826 2.21659 -3.00031 -0.8578
-0.18086 -0.02983 -0.17452 27.15322 -16.17144 5.09752 42.85497 3.14897 6.65077 -10.47762 -17.61125 -0.83052 -63.66908 -66.38794 34.57225 116.95412 108.54203 -33.90512 -6.73329 -8.76882 118.05026 -3.8988 24.42985 -51.41038 7.35379 13.26549 37.34786 -25.11497 8.53301 -30.84535 -9.64839 -5.22338 -3.59629 35.14279 -8.20875 21.30516 -28.12801 -0.50071 -1.70627 -0.20396
-0.18155 -0.02988 -0.17365 27.09608 -16.1369 5.10925 42.68794 3.12807 6.65137 -10.55418 -17.66086 -0.83053 -63.68016 -66.37811 34.66082 116.96291 108.47914 -34.06799 -6.66467 -8.5855 117.79597 -4.10132 24.50953 -54.20733 6.73534 13.65612 37.4205 -25.0575 8.67876 -30.87709 -9.6526 -5.2185 -3.59746 35.1857 -8.19161 21.22102 -28.14175 -3.6104 -0.22673 0.54393
-0.18223 -0.02989 -0.17278 27.0486 -16.11814 5.10867 42.53384 3.10614 6.63727 -10.62607 -17.69768 -0.83054 -63.6756 -66.3895 34.75376 116.97864 108.4015 -34.19681 -6.6059 -8.44742 117.58482 -4.29707 24.58534 -56.4053 6.2646 13.96137 37.49016 -24.99559 8.79178 -30.89266 -9.65784 -5.21373 -3.59792 35.23867 -8.16932 21.11976 -28.14627 -6.06013 0.94881 1.13564
-0.18284 -0.02978 -0.17188 27.02864 -16.1357 5.07645 42.41654 3.07939 6.57948 -10.68597 -17.69946 -0.83055 -63.69507 -66.43425 34.77995 117.01294 108.39654 -34.27104 -6.58297 -8.42877 117.49214 -4.48463 24.646 -56.79949 6.23398 14.00483 37.54359 -24.93385 8.77873 -30.86541 -9.66027 -5.20716 -3.59466 35.30858 -8.13363 20.98149 -28.12569 -6.48655 1.18364 1.24659
-0.18344 -0.02963 -0.17098 27.01846 -16.16877 5.03217 42.31219 3.0515 6.50695 -10.7412 -17.68853 -0.83056 -63.69029 -66.5039 34.82021 117.05402 108.36259 -34.3053 -6.5691 -8.45718 117.44387 -4.66183 24.70148 -56.57676 6.3543 13.95954 37.59416 -24.86868 8.73083 -30.82241 -9.66343 -5.20061 -3.5906 35.38822 -8.09273 20.82825 -28.09602 -6.22751 1.10125 1.195
-0.18405 -0.0295 -0.17009 27.0039 -16.19591 4.99329 42.20129 3.02438 6.44178 -10.79876 -17.68361 -0.83057 -63.6496 -66.58128 34.90833 117.09193 108.26361 -34.32886 -6.54519 -8.46871 117.37745 -4.83338 24.75789 -56.65153 6.40086 13.9568 37.64839 -24.8033 8.70578 -30.78713 -9.66736 -5.19454 -3.58727 35.46563 -8.05368 20.68377 -28.07084 -6.30102 1.17191 1.222
-0.18464 -0.02936 -0.16917 26.98915 -16.21891 4.95421 42.09306 2.99634 6.37357 -10.85578 -17.67756 -0.83058 -63.79359 -66.58386 34.78294 117.13054 108.4727 -34.46632 -6.54421 -8.46101 117.30232 -5.04937 24.82106 -56.67272 6.46567 13.94819 37.69296 -24.74342 8.65572 -30.74907 -9.66741 -5.1867 -3.58264 35.53472 -8.01646 20.52934 -28.044 -6.31156 1.2181 1.23542
-0.18527 -0.02924 -0.1683 26.97692 -16.25418 4.91311 41.98252 2.96998 6.30876 -10.91226 -17.67098 -0.83059 -63.56382 -66.74096 35.08649 117.16901 108.06049 -34.36714 -6.50013 -8.50459 117.25573 -5.17012 24.8688 -56.6514 6.52964 13.92924 37.75714 -24.67248 8.64694 -30.71322 -9.67527 -5.18236 -3.58037 35.62321 -7.97464 20.39253 -28.01851 -6.27957 1.23473 1.23595
-0.186 -0.0292 -0.16759 26.97118 -16.31744 4.86695 41.86057 2.94763 6.25179 -10.97325 -17.66517 -0.83059 -62.16266 -67.38223 36.73831 117.20756 105.70286 -33.53637 -6.31298 -8.67834 117.27936 -5.03078 24.87261 -56.66842 6.55457 13.90481 37.87287 -24.56639 8.77032 -30.68718 -9.70622 -5.18868 -3.58545 35.76155 -7.91756 20.31082 -27.99908 -6.30601 1.24835 1.24153
-0.18678 -0.02919 -0.16693 26.96718 -16.39284 4.81976 41.736 2.92715 6.20006 -11.03267 -17.65956 -0.8306 -60.41126 -68.1672 38.79319 117.24531 102.76182 -32.48462 -6.08578 -8.90187 117.32968 -4.79647 24.86122 -56.66066 6.57374 13.87196 38.00914 -24.4506 8.93411 -30.664 -9.74459 -5.19828 -3.59277 35.91924 -7.85677 20.24728 -27.98132 -6.30582 1.24028 1.2382
-0.18753 -0.02916 -0.16625 26.96129 -16.4639 4.77461 41.61407 2.90634 6.14882 -11.09005 -17.65424 -0.83061 -58.91813 -68.84359 40.54982 117.28202 100.24773 -31.59241 -5.89181 -9.10289 117.36655 -4.60442 24.85856 -56.65822 6.59611 13.84204 38.13787 -24.34293 9.07256 -30.63965 -9.77836 -5.20574 -3.59861 36.06872 -7.80016 20.17366 -27.96275 -6.31205 1.24074 1.23814
-0.18829 -0.02913 -0.16554 26.96088 -16.5304 4.7221 41.48725 2.88325 6.0834 -11.16013 -17.64628 -0.83061 -57.0143 -69.6999 42.77991 117.32492 97.06369 -30.45167 -5.63657 -9.30601 117.41113 -4.41297 24.84875 -56.65879 6.62191 13.81428 38.25822 -24.2191 9.23936 -30.61413 -9.81736 -5.21606 -3.60641 36.21584 -7.73275 20.10648 -27.94412 -6.32883 1.23954 1.23787
-0.18906 -0.02912 -0.16491 26.94873 -16.60928 4.68524 41.36888 2.86546 6.05087 -11.2019 -17.64476 -0.83062 -55.87231 -70.21985 44.13552 117.3546 95.11902 -29.77359 -5.497 -9.51478 117.44464 -4.20144 24.84941 -56.65628 6.6364 13.77938 38.40182 -24.1271 9.3571 -30.59204 -9.8472 -5.22105 -3.61061 36.37268 -7.68714 20.03127 -27.9261 -6.31355 1.23624 1.23545
-0.18986 -0.02918 -0.16447 26.90923 -16.71773 4.68846 41.28273 2.86097 6.09125 -11.17901 -17.65488 -0.83062 -57.01307 -69.73624 42.83741 117.34859 96.89463 -30.45362 -5.70662 -9.73567 117.44695 -3.92936 24.88969 -56.64504 6.62743 13.74238 38.59711 -24.12192 9.33003 -30.5779 -9.85007 -5.21178 -3.60504 36.54882 -7.70158 19.92252 -27.90974 -6.33422 1.27442 1.25318
-0.19068 -0.02927 -0.16411 26.85695 -16.83858 4.70811 41.20377 2.86187 6.16742 -11.12528 -17.67262 -0.83062 -58.91573 -68.9164 40.67054 117.32925 99.90949 -31.60196 -6.03032 -9.95775 117.43556 -3.64744 24.93942 -56.63653 6.60517 13.69598 38.81648 -24.1497 9.25235 -30.56733 -9.84345 -5.19682 -3.59567 36.73463 -7.73821 19.80657 -27.89393 -6.31047 1.30682 1.26648
-0.19149 -0.02935 -0.16372 26.80668 -16.95458 4.72264 41.1158 2.86099 6.23862 -11.07703 -17.69099 -0.83062 -60.40797 -68.27641 38.99459 117.3155 102.25449 -32.51901 -6.28856 -10.17452 117.42672 -3.38639 24.98062 -56.63298 6.58431 13.64418 39.02976 -24.16478 9.19754 -30.55575 -9.84106 -5.18361 -3.58756 36.91768 -7.76551 19.69836 -27.87766 -6.22596 1.31351 1.26557
-0.1923 -0.02941 -0.1633 26.77186 -17.06714 4.72753 41.05119 2.85763 6.26366 -11.06461 -17.69227 -0.83062 -62.15723 -67.52745 36.93081 117.30341 105.02669 -33.50712 -6.60266 -10.41699 117.43561 -3.04553 25.04043 -56.5989 6.58364 13.63301 39.22332 -24.17025 9.14428 -30.54173 -9.8392 -5.17394 -3.58143 37.09416 -7.78987 19.57133 -27.86228 -6.45885 1.43118 1.3283
-0.19313 -0.02951 -0.16296 26.70262 -17.19032 4.75603 40.94069 2.86034 6.39159 -10.97046 -17.7307 -0.83062 -63.55876 -66.92352 35.45841 117.28506 107.21451 -34.46026 -6.82833 -10.60079 117.40238 -2.87891 25.06237 -56.63336 6.53693 13.53493 39.46336 -24.20327 9.0757 -30.53353 -9.83398 -5.15565 -3.57033 37.28681 -7.8252 19.48226 -27.84524 -6.04935 1.32628 1.26313
-0.19406 -0.02971 -0.16278 26.53474 -17.33382 4.84888 40.69271 2.88131 6.80927 -10.65635 -17.87193 -0.83062 -63.7965 -66.8037 35.8719 117.24947 107.45686 -35.21231 -6.77953 -10.66134 117.2694 -3.12103 24.9906 -56.82307 6.37393 13.20044 39.82603 -24.30774 8.97366 -30.54116 -9.82099 -5.11376 -3.54578 37.51773 -7.88938 19.49349 -27.82275 -3.62562 0.52433 0.79719
-0.19502 -0.02994 -0.16268 26.33402 -17.48857 4.96428 40.39991 2.90761 7.32641 -10.26145 -18.0497 -0.83062 -63.66255 -66.84068 36.90127 117.20862 107.07589 -35.91207 -6.63861 -10.65439 117.09177 -3.55495 24.87799 -57.08746 6.16388 12.77841 40.23436 -24.43806 8.8587 -30.55439 -9.80509 -5.06364 -3.5165 37.76517 -7.96311 19.54409 -27.79868 -0.60045 -0.48683 0.21112
-0.19596 -0.03014 -0.16254 26.15265 -17.64211 5.06736 40.13364 2.92971 7.78874 -9.9047 -18.20965 -0.83062 -63.71227 -66.80392 37.61978 117.17232 107.00289 -36.63053 -6.54142 -10.65357 116.92597 -3.94853 24.77557 -57.34051 5.97009 12.39596 40.62177 -24.55449 8.7514 -30.56461 -9.79094 -5.01801 -3.48975 38.0077 -8.02985 19.58086 -27.77585 1.97978 -1.34553 -0.28706
-0.19694 -0.03037 -0.1624 25.95175 -17.77985 5.18001 39.84194 2.95977 8.29348 -9.54065 -18.37584 -0.83062 -63.7277 -66.765 38.43769 117.12652 106.87142 -37.38731 -6.43964 -10.76 116.79602 -4.13725 24.70894 -57.50077 5.79646 12.01492 41.01139 -24.68167 8.63358 -30.57692 -9.77447 -4.96888 -3.46115 38.23991 -8.10851 19.60087 -27.75092 5.27122 -2.4417 -0.92305
-0.19784 -0.03056 -0.16229 25.78438 -17.95269 5.27755 39.59206 2.9741 8.73229 -9.17325 -18.53656 -0.83062 -63.71434 -66.77341 39.20772 117.09933 106.69398 -38.04487 -6.32488 -10.62253 116.58023 -4.80684 24.55777 -57.86882 5.57108 11.60917 41.40614 -24.79146 8.53679 -30.58615 -9.76251 -4.92536 -3.43547 38.49702 -8.16435 19.66443 -27.72986 7.24221 -3.09914 -1.30414
-0.19853 -0.03065 -0.16225 25.7136 -18.22248 5.33044 39.47211 2.94669 8.97118 -8.81473 -18.6818 -0.83062 -63.7278 -66.86507 39.68332 117.12603 106.56913 -38.44721 -6.18926 -9.86523 116.14496 -6.68522 24.18526 -58.81853 5.20423 11.16665 41.81033 -24.85292 8.48808 -30.5855 -9.7615 -4.89763 -3.41763 38.82227 -8.15453 19.8454 -27.721 5.25769 -2.43921 -0.92012
-0.19914 -0.03069 -0.16225 25.67849 -18.52661 5.36675 39.39518 2.90268 9.13902 -8.45626 -18.81843 -0.83062 -63.71916 -67.0022 40.09514 117.17162 106.40913 -38.74828 -6.04458 -8.85736 115.62382 -9.05415 23.72911 -59.96906 4.78912 10.70078 42.2167 -24.89473 8.46351 -30.58148 -9.76558 -4.87618 -3.40315 39.17132 -8.12136 20.06746 -27.71589 1.95279 -1.34044 -0.28119
-0.19979 -0.03075 -0.16222 25.62977 -18.81311 5.40893 39.29609 2.86424 9.33482 -8.09877 -18.95357 -0.83062 -63.70581 -67.12634 40.54907 117.20766 106.24026 -39.08913 -5.90841 -7.94045 115.13756 -11.24621 23.30927 -61.01149 4.40248 10.23862 42.61777 -24.94139 8.43698 -30.57911 -9.76887 -4.85304 -3.38805 39.50718 -8.09895 20.26651 -27.70829 -0.64055 -0.4787 0.21999
-0.20044 -0.03081 -0.16222 25.56898 -19.10854 5.45909 39.20611 2.83427 9.55189 -7.73351 -19.11359 -0.83063 -63.73931 -67.22386 40.97183 117.24701 106.15191 -39.45382 -5.75054 -7.11991 114.66667 -13.25166 22.89334 -62.13093 3.9856 9.80116 43.03892 -25.00604 8.37264 -30.57674 -9.76568 -4.82475 -3.36897 39.85368 -8.07622 20.4859 -27.70389 -3.68045 0.53342 0.80881
-0.20107 -0.03087 -0.16219 25.54215 -19.39339 5.48819 39.10838 2.78273 9.70709 -7.38639 -19.21827 -0.83063 -63.67845 -67.38497 41.43232 117.28473 105.89975 -39.74666 -5.63692 -6.03753 114.14465 -15.75831 22.45226 -63.13251 3.6221 9.30958 43.41782 -25.0284 8.39205 -30.57313 -9.77715 -4.80873 -3.35899 40.18343 -8.04857 20.67133 -27.69382 -6.11559 1.34058 1.27798
-0.20168 -0.03095 -0.16205 25.60152 -19.64027 5.46469 38.97522 2.67495 9.70297 -7.08234 -19.18061 -0.83063 -63.33024 -67.71588 42.04674 117.30734 105.16757 -39.85414 -5.64782 -4.31541 113.49687 -19.53854 21.94244 -63.79844 3.40729 8.66048 43.68187 -24.9372 8.64436 -30.56999 -9.82851 -4.82544 -3.37379 40.46101 -8.01226 20.76006 -27.66645 -6.52664 1.4638 1.34797
-0.20227 -0.03103 -0.1619 25.69387 -19.87525 5.42014 38.83368 2.54614 9.63955 -6.79834 -19.08583 -0.83063 -62.89512 -68.10751 42.69224 117.32879 104.28123 -39.8947 -5.70384 -2.33519 112.80193 -23.80133 21.41414 -64.33364 3.2499 7.96111 43.90253 -24.80436 8.97848 -30.56515 -9.89428 -4.85424 -3.39756 40.72075 -7.97189 20.81178 -27.63341 -6.29224 1.36858 1.2905
